<?xml version="1.0" encoding="UTF-8" standalone="no"?>
<svg
   xmlns:dc="http://purl.org/dc/elements/1.1/"
   xmlns:cc="http://creativecommons.org/ns#"
   xmlns:rdf="http://www.w3.org/1999/02/22-rdf-syntax-ns#"
   xmlns:svg="http://www.w3.org/2000/svg"
   xmlns="http://www.w3.org/2000/svg"
   viewBox="0 0 312 100.3052"
   height="100.3052"
   width="312"
   xml:space="preserve"
   id="svg2"
   version="1.1"><metadata
     id="metadata8"><rdf:RDF><cc:Work
         rdf:about=""><dc:format>image/svg+xml</dc:format><dc:type
           rdf:resource="http://purl.org/dc/dcmitype/StillImage" /></cc:Work></rdf:RDF></metadata><defs
     id="defs6"><clipPath
       id="clipPath26"
       clipPathUnits="userSpaceOnUse"><path
         id="path24"
         d="M 0,75.229 H 234 V 0 H 0 Z" /></clipPath></defs><g
     transform="matrix(1.3333333,0,0,-1.3333333,0,100.3052)"
     id="g10"><g
       transform="translate(74.5273,54.1457)"
       id="g12"><path
         id="path14"
         style="fill:#393536;fill-opacity:1;fill-rule:nonzero;stroke:none"
         d="M 0,0 H 21.413 V -4.983 H 5.526 v -10.263 h 14.308 v -5.033 H 5.526 l 0.049,-10.262 h 15.887 v -4.983 H 0 Z" /></g><g
       transform="translate(100.3252,54.1946)"
       id="g16"><path
         id="path18"
         style="fill:#393536;fill-opacity:1;fill-rule:nonzero;stroke:none"
         d="M 0,0 H 5.575 L 5.674,-30.541 H 20.18 v -4.983 H 0 Z" /></g><g
       id="g20"><g
         clip-path="url(#clipPath26)"
         id="g22"><g
           transform="translate(136.4385,34.8542)"
           id="g28"><path
             id="path30"
             style="fill:#393536;fill-opacity:1;fill-rule:nonzero;stroke:none"
             d="M 0,0 C 5.97,0 8.387,2.467 8.387,7.105 8.387,11.447 5.97,14.308 0,14.308 H -6.069 V 0 Z M -11.645,19.292 H -0.1 c 10.017,0 14.21,-4.737 14.21,-12.187 0,-7.747 -4.539,-12.088 -14.21,-12.088 h -5.969 v -11.249 h -5.576 z" /></g><g
           transform="translate(161.0195,46.6086)"
           id="g32"><path
             id="path34"
             style="fill:#393536;fill-opacity:1;fill-rule:nonzero;stroke:none"
             d="m 0,0 v -0.626 h -5.382 v 8.25 h 5.325 V 7.009 H -4.711 V 3.834 h 4.404 V 3.22 H -4.711 V 0 Z" /></g><g
           transform="translate(162.7617,51.6155)"
           id="g36"><path
             id="path38"
             style="fill:#393536;fill-opacity:1;fill-rule:nonzero;stroke:none"
             d="m 0,0 h 0.637 v -1.161 c 0.364,0.797 1.149,1.264 2.139,1.264 1.377,0 2.253,-0.922 2.253,-2.413 v -3.323 h -0.66 v 3.243 c 0,1.195 -0.614,1.867 -1.695,1.867 -1.195,0 -2.014,-0.831 -2.014,-1.992 V -5.633 H 0 Z" /></g><g
           transform="translate(174.3809,48.8274)"
           id="g40"><path
             id="path42"
             style="fill:#393536;fill-opacity:1;fill-rule:nonzero;stroke:none"
             d="m 0,0 c 0,1.309 -0.911,2.276 -2.186,2.276 -1.24,0 -2.15,-0.956 -2.15,-2.276 0,-1.365 0.888,-2.333 2.15,-2.333 C -0.934,-2.333 0,-1.354 0,0 M 0.637,5.667 V -2.845 H 0 v 1.229 c -0.444,-0.842 -1.241,-1.331 -2.254,-1.331 -1.604,0 -2.754,1.229 -2.754,2.947 0,1.662 1.173,2.891 2.766,2.891 0.99,0 1.775,-0.467 2.219,-1.252 v 4.028 z" /></g><g
           transform="translate(181.6865,48.8274)"
           id="g44"><path
             id="path46"
             style="fill:#393536;fill-opacity:1;fill-rule:nonzero;stroke:none"
             d="m 0,0 c 0,1.309 -0.91,2.276 -2.186,2.276 -1.251,0 -2.15,-0.979 -2.15,-2.276 0,-1.365 0.876,-2.333 2.15,-2.333 C -0.934,-2.333 0,-1.354 0,0 M 0.637,2.788 V -2.845 H 0 v 1.252 c -0.433,-0.853 -1.241,-1.354 -2.253,-1.354 -1.616,0 -2.754,1.229 -2.754,2.947 0,1.662 1.16,2.891 2.765,2.891 1.013,0 1.809,-0.49 2.242,-1.321 v 1.218 z" /></g><g
           transform="translate(184.3037,51.6155)"
           id="g48"><path
             id="path50"
             style="fill:#393536;fill-opacity:1;fill-rule:nonzero;stroke:none"
             d="m 0,0 h 0.638 v -1.161 c 0.364,0.797 1.149,1.264 2.138,1.264 1.377,0 2.254,-0.922 2.254,-2.413 V -5.633 H 4.37 v 3.243 c 0,1.195 -0.614,1.867 -1.695,1.867 -1.196,0 -2.015,-0.831 -2.015,-1.992 V -5.633 H 0 Z" /></g><g
           transform="translate(195.7061,48.9299)"
           id="g52"><path
             id="path54"
             style="fill:#393536;fill-opacity:1;fill-rule:nonzero;stroke:none"
             d="m 0,0 c 0,1.286 -0.91,2.196 -2.139,2.196 -1.24,0 -2.071,-0.91 -2.071,-2.196 0,-1.332 0.819,-2.208 2.048,-2.208 C -0.933,-2.208 0,-1.32 0,0 m 0.638,2.686 v -5.485 c 0,-1.753 -0.991,-2.731 -2.686,-2.731 -1.331,0 -2.309,0.717 -2.583,1.9 l 0.637,0.08 c 0.205,-0.854 0.933,-1.388 1.934,-1.388 1.321,0 2.06,0.773 2.06,2.139 v 1.24 c -0.443,-0.808 -1.251,-1.252 -2.241,-1.252 -1.571,0 -2.64,1.127 -2.64,2.811 0,1.639 1.104,2.788 2.685,2.788 0.99,0 1.763,-0.444 2.196,-1.218 v 1.116 z" /></g><g
           transform="translate(202.7393,49.1462)"
           id="g56"><path
             id="path58"
             style="fill:#393536;fill-opacity:1;fill-rule:nonzero;stroke:none"
             d="m 0,0 c -0.034,1.195 -0.831,1.968 -2.037,1.968 -1.217,0 -2.06,-0.773 -2.185,-1.98 z m 0.626,-0.592 -4.848,-0.011 c 0.103,-1.241 0.934,-2.06 2.14,-2.06 0.842,0 1.468,0.319 1.854,0.956 l 0.57,-0.262 c -0.524,-0.864 -1.355,-1.297 -2.458,-1.297 -1.616,0 -2.777,1.24 -2.777,2.936 0,1.695 1.195,2.902 2.856,2.902 1.616,0 2.675,-1.161 2.675,-2.891 0,-0.137 -0.012,-0.273 -0.012,-0.273" /></g><g
           transform="translate(204.8789,51.6155)"
           id="g60"><path
             id="path62"
             style="fill:#393536;fill-opacity:1;fill-rule:nonzero;stroke:none"
             d="m 0,0 h 0.638 v -1.422 c 0.33,0.91 1.126,1.49 2.162,1.49 0.113,0 0.193,0 0.272,-0.011 L 3.027,-0.626 H 2.822 C 1.423,-0.626 0.66,-1.525 0.66,-3.209 V -5.633 H 0 Z" /></g><g
           transform="translate(213.3906,49.1462)"
           id="g64"><path
             id="path66"
             style="fill:#393536;fill-opacity:1;fill-rule:nonzero;stroke:none"
             d="m 0,0 c -0.033,1.195 -0.83,1.968 -2.036,1.968 -1.218,0 -2.06,-0.773 -2.186,-1.98 z m 0.626,-0.592 -4.848,-0.011 c 0.103,-1.241 0.934,-2.06 2.14,-2.06 0.842,0 1.468,0.319 1.854,0.956 l 0.57,-0.262 c -0.524,-0.864 -1.355,-1.297 -2.458,-1.297 -1.615,0 -2.777,1.24 -2.777,2.936 0,1.695 1.195,2.902 2.857,2.902 1.615,0 2.674,-1.161 2.674,-2.891 0,-0.137 -0.012,-0.273 -0.012,-0.273" /></g><g
           transform="translate(220.2988,48.8274)"
           id="g68"><path
             id="path70"
             style="fill:#393536;fill-opacity:1;fill-rule:nonzero;stroke:none"
             d="M 0,0 C 0,1.309 -0.91,2.276 -2.185,2.276 -3.426,2.276 -4.336,1.32 -4.336,0 c 0,-1.365 0.888,-2.333 2.151,-2.333 C -0.934,-2.333 0,-1.354 0,0 M 0.637,5.667 V -2.845 H 0 v 1.229 c -0.444,-0.842 -1.24,-1.331 -2.253,-1.331 -1.604,0 -2.754,1.229 -2.754,2.947 0,1.662 1.172,2.891 2.765,2.891 0.99,0 1.775,-0.467 2.219,-1.252 v 4.028 z" /></g><g
           transform="translate(160.6328,32.9861)"
           id="g72"><path
             id="path74"
             style="fill:#393536;fill-opacity:1;fill-rule:nonzero;stroke:none"
             d="M 0,0 V -0.659 H -4.995 V 7.59 h 0.683 V 0 Z" /></g><g
           transform="translate(166.5508,35.1716)"
           id="g76"><path
             id="path78"
             style="fill:#393536;fill-opacity:1;fill-rule:nonzero;stroke:none"
             d="m 0,0 c 0,1.309 -0.91,2.275 -2.185,2.275 -1.252,0 -2.151,-0.978 -2.151,-2.275 0,-1.366 0.876,-2.333 2.151,-2.333 C -0.934,-2.333 0,-1.354 0,0 M 0.637,2.788 V -2.845 H 0 v 1.251 c -0.433,-0.853 -1.24,-1.353 -2.253,-1.353 -1.616,0 -2.754,1.228 -2.754,2.947 0,1.661 1.16,2.89 2.765,2.89 1.013,0 1.809,-0.489 2.242,-1.32 v 1.218 z" /></g><g
           transform="translate(169.1113,37.9592)"
           id="g80"><path
             id="path82"
             style="fill:#393536;fill-opacity:1;fill-rule:nonzero;stroke:none"
             d="m 0,0 h 0.638 v -1.161 c 0.363,0.797 1.148,1.263 2.138,1.263 1.377,0 2.254,-0.921 2.254,-2.412 V -5.632 H 4.37 v 3.243 c 0,1.194 -0.615,1.866 -1.695,1.866 -1.196,0 -2.015,-0.831 -2.015,-1.992 V -5.632 H 0 Z" /></g><g
           transform="translate(180.5137,35.2732)"
           id="g84"><path
             id="path86"
             style="fill:#393536;fill-opacity:1;fill-rule:nonzero;stroke:none"
             d="m 0,0 c 0,1.286 -0.91,2.197 -2.14,2.197 -1.24,0 -2.07,-0.911 -2.07,-2.197 0,-1.331 0.819,-2.207 2.048,-2.207 C -0.933,-2.207 0,-1.319 0,0 m 0.638,2.686 v -5.485 c 0,-1.753 -0.991,-2.73 -2.686,-2.73 -1.332,0 -2.31,0.717 -2.583,1.899 l 0.637,0.08 c 0.205,-0.853 0.933,-1.388 1.934,-1.388 1.321,0 2.06,0.774 2.06,2.139 v 1.24 c -0.443,-0.807 -1.252,-1.252 -2.241,-1.252 -1.571,0 -2.641,1.127 -2.641,2.811 0,1.639 1.104,2.788 2.686,2.788 0.99,0 1.763,-0.443 2.196,-1.217 v 1.115 z" /></g><g
           transform="translate(182.9951,34.7165)"
           id="g88"><path
             id="path90"
             style="fill:#393536;fill-opacity:1;fill-rule:nonzero;stroke:none"
             d="M 0,0 V 3.243 H 0.66 V 0.045 c 0,-1.206 0.694,-1.912 1.843,-1.912 1.161,0 1.844,0.706 1.844,1.912 v 3.198 h 0.66 V 0 C 5.007,-1.548 4.062,-2.492 2.503,-2.492 0.956,-2.492 0,-1.548 0,0" /></g><g
           transform="translate(194.5234,35.1716)"
           id="g92"><path
             id="path94"
             style="fill:#393536;fill-opacity:1;fill-rule:nonzero;stroke:none"
             d="m 0,0 c 0,1.309 -0.911,2.275 -2.186,2.275 -1.252,0 -2.15,-0.978 -2.15,-2.275 0,-1.366 0.876,-2.333 2.15,-2.333 C -0.934,-2.333 0,-1.354 0,0 M 0.637,2.788 V -2.845 H 0 v 1.251 c -0.433,-0.853 -1.241,-1.353 -2.254,-1.353 -1.615,0 -2.754,1.228 -2.754,2.947 0,1.661 1.161,2.89 2.766,2.89 1.013,0 1.809,-0.489 2.242,-1.32 v 1.218 z" /></g><g
           transform="translate(201.6465,35.2732)"
           id="g96"><path
             id="path98"
             style="fill:#393536;fill-opacity:1;fill-rule:nonzero;stroke:none"
             d="M 0,0 C 0,1.286 -0.91,2.197 -2.139,2.197 -3.379,2.197 -4.21,1.286 -4.21,0 c 0,-1.331 0.819,-2.207 2.049,-2.207 C -0.933,-2.207 0,-1.319 0,0 m 0.638,2.686 v -5.485 c 0,-1.753 -0.991,-2.73 -2.686,-2.73 -1.331,0 -2.309,0.717 -2.583,1.899 l 0.637,0.08 c 0.205,-0.853 0.933,-1.388 1.934,-1.388 1.321,0 2.06,0.774 2.06,2.139 v 1.24 c -0.443,-0.807 -1.251,-1.252 -2.241,-1.252 -1.571,0 -2.64,1.127 -2.64,2.811 0,1.639 1.104,2.788 2.685,2.788 0.99,0 1.764,-0.443 2.196,-1.217 v 1.115 z" /></g><g
           transform="translate(208.7939,35.49)"
           id="g100"><path
             id="path102"
             style="fill:#393536;fill-opacity:1;fill-rule:nonzero;stroke:none"
             d="m 0,0 c -0.034,1.195 -0.831,1.968 -2.037,1.968 -1.218,0 -2.06,-0.773 -2.185,-1.98 z m 0.626,-0.592 -4.848,-0.012 c 0.102,-1.24 0.933,-2.059 2.139,-2.059 0.843,0 1.468,0.319 1.855,0.956 l 0.569,-0.262 c -0.524,-0.864 -1.354,-1.297 -2.458,-1.297 -1.615,0 -2.777,1.241 -2.777,2.936 0,1.695 1.196,2.901 2.857,2.901 1.615,0 2.674,-1.16 2.674,-2.889 0,-0.137 -0.011,-0.274 -0.011,-0.274" /></g><g
           transform="translate(210.5811,33.5329)"
           id="g104"><path
             id="path106"
             style="fill:#393536;fill-opacity:1;fill-rule:nonzero;stroke:none"
             d="m 0,0 0.625,0.182 c 0,0 0.229,-0.888 1.343,-0.888 0.797,0 1.263,0.376 1.263,1.002 0,0.568 -0.33,0.796 -1.024,0.955 L 1.445,1.444 C 0.557,1.661 0.103,2.162 0.103,2.958 c 0,0.956 0.716,1.57 1.832,1.57 1.467,0 1.797,-1.058 1.797,-1.058 L 3.117,3.254 c 0,0 -0.204,0.671 -1.194,0.671 -0.717,0 -1.161,-0.352 -1.161,-0.932 0,-0.581 0.342,-0.797 1.024,-0.968 L 2.561,1.843 C 3.447,1.627 3.902,1.126 3.902,0.33 3.902,-0.684 3.141,-1.309 1.957,-1.309 0.341,-1.309 0,0 0,0" /></g><g
           transform="translate(160.7812,24.2117)"
           id="g108"><path
             id="path110"
             style="fill:#393536;fill-opacity:1;fill-rule:nonzero;stroke:none"
             d="M 0,0 C 0,1.274 -0.877,2.071 -2.288,2.071 H -4.473 V -2.07 h 2.174 C -0.877,-2.07 0,-1.274 0,0 m 0.693,0 c 0,-1.661 -1.16,-2.708 -2.992,-2.708 h -2.174 v -2.833 h -0.671 v 8.249 h 2.856 C -0.456,2.708 0.693,1.661 0.693,0" /></g><g
           transform="translate(163,24.3025)"
           id="g112"><path
             id="path114"
             style="fill:#393536;fill-opacity:1;fill-rule:nonzero;stroke:none"
             d="m 0,0 h 0.638 v -1.422 c 0.33,0.91 1.127,1.49 2.162,1.49 0.113,0 0.193,0 0.272,-0.01 L 3.027,-0.625 H 2.822 C 1.423,-0.625 0.66,-1.524 0.66,-3.209 V -5.632 H 0 Z" /></g><g
           transform="translate(171.8311,21.4812)"
           id="g116"><path
             id="path118"
             style="fill:#393536;fill-opacity:1;fill-rule:nonzero;stroke:none"
             d="M 0,0 C 0,1.377 -0.944,2.321 -2.299,2.321 -3.63,2.321 -4.598,1.354 -4.598,0 c 0,-1.332 0.945,-2.299 2.299,-2.299 C -0.968,-2.299 0,-1.332 0,0 m -5.269,0 c 0,1.695 1.251,2.924 2.97,2.924 1.73,0 2.97,-1.184 2.97,-2.924 0,-1.673 -1.251,-2.913 -2.97,-2.913 -1.741,0 -2.97,1.228 -2.97,2.913" /></g><g
           transform="translate(173.9365,26.1579)"
           id="g120"><path
             id="path122"
             style="fill:#393536;fill-opacity:1;fill-rule:nonzero;stroke:none"
             d="M 0,0 C 0,0.307 0.228,0.534 0.558,0.534 0.876,0.534 1.104,0.307 1.104,0 1.104,-0.319 0.865,-0.546 0.558,-0.546 0.228,-0.546 0,-0.33 0,0 m -1.126,-10.082 0.045,0.568 h 0.148 c 0.796,0 1.161,0.421 1.161,1.242 v 6.417 h 0.66 V -8.25 c 0,-1.195 -0.592,-1.855 -1.742,-1.855 -0.17,0 -0.272,0.023 -0.272,0.023" /></g><g
           transform="translate(181.4355,21.8337)"
           id="g124"><path
             id="path126"
             style="fill:#393536;fill-opacity:1;fill-rule:nonzero;stroke:none"
             d="m 0,0 c -0.034,1.194 -0.831,1.969 -2.037,1.969 -1.217,0 -2.06,-0.775 -2.185,-1.981 z m 0.626,-0.592 -4.848,-0.012 c 0.103,-1.24 0.933,-2.059 2.14,-2.059 0.842,0 1.468,0.318 1.854,0.956 l 0.57,-0.262 c -0.524,-0.864 -1.355,-1.297 -2.458,-1.297 -1.616,0 -2.777,1.241 -2.777,2.936 0,1.695 1.195,2.901 2.856,2.901 1.616,0 2.675,-1.16 2.675,-2.889 0,-0.137 -0.012,-0.274 -0.012,-0.274" /></g><g
           transform="translate(183.291,21.5261)"
           id="g128"><path
             id="path130"
             style="fill:#393536;fill-opacity:1;fill-rule:nonzero;stroke:none"
             d="M 0,0 C 0,1.65 1.218,2.879 2.856,2.879 3.88,2.879 4.733,2.39 5.245,1.514 L 4.643,1.274 C 4.256,1.9 3.618,2.265 2.856,2.265 1.593,2.265 0.671,1.298 0.671,0.012 c 0,-1.366 0.899,-2.345 2.128,-2.345 0.888,0 1.502,0.354 1.912,1.093 L 5.303,-1.502 C 4.779,-2.469 3.948,-2.958 2.799,-2.958 1.183,-2.958 0,-1.718 0,0" /></g><g
           transform="translate(193.6465,18.9089)"
           id="g132"><path
             id="path134"
             style="fill:#393536;fill-opacity:1;fill-rule:nonzero;stroke:none"
             d="m 0,0 c 0,0 -0.513,-0.341 -1.377,-0.341 -1.24,0 -1.844,0.649 -1.844,1.98 v 3.164 h -1.126 v 0.591 h 1.126 v 1.638 h 0.66 V 5.394 h 2.288 V 4.803 h -2.288 v -3.13 c 0,-0.99 0.353,-1.389 1.241,-1.4 0.648,-0.011 1.092,0.307 1.092,0.307 z" /></g><g
           transform="translate(61.207,37.1848)"
           id="g136"><path
             id="path138"
             style="fill:#722028;fill-opacity:1;fill-rule:nonzero;stroke:none"
             d="m 0,0 c 1.622,0.971 3.324,1.081 3.803,-0.226 0.478,-1.308 -1.625,-7.757 -3.437,-11.091 -4.791,-8.815 -12.602,-12.729 -22.598,-13.916 -16.927,-2.007 -31.236,14.191 -25.966,30.429 0.792,2.44 4.836,6.213 5.279,6.376 0.442,0.162 1.904,-0.151 2.384,-0.773 0.48,-0.622 1.431,-7.083 1.965,-10.652 0.671,-4.481 1.526,-13.173 6.657,-13.808 5.079,-0.628 10.13,-1.541 15.157,-2.515 5.674,-1.101 11.011,5.766 14.209,10.712 C -1.276,-3.499 -1.622,-0.972 0,0" /></g><g
           transform="translate(51.2637,55.301)"
           id="g140"><path
             id="path142"
             style="fill:#4a889b;fill-opacity:1;fill-rule:nonzero;stroke:none"
             d="M 0,0 C -0.961,1.062 -1.849,2.211 -2.922,3.145 -3.523,3.668 -4.738,4.376 -5.208,4.154 -5.677,3.932 -6.024,2.219 -5.902,1.343 c 0.272,-1.956 0.906,-3.848 1.356,-5.776 0.083,-0.356 -0.144,-0.498 0.282,-1.077 0.426,-0.579 2.494,-1.658 3.512,-2.854 0.532,-0.626 1.101,-1.376 1.297,-2.155 0.5,-1.978 0.938,-3.997 1.141,-6.013 0.064,-0.638 -0.178,-1.09 -0.123,-1.813 0.056,-0.722 -0.093,-2.828 -2.468,-3.6 -3.106,-1.01 -6.371,-1.778 -9.369,-0.364 -3.662,1.726 -11.114,2.744 -11.555,1.859 -0.441,-0.885 -0.144,-1.717 0.11,-2.388 2.128,-5.612 10.98,-8.736 16.345,-5.819 0.35,0.19 4.148,1.412 4.398,1.71 8.083,5.044 3.4,4.818 6.518,8.031 0.77,0.793 1.05,2.471 0.94,3.666 C 5.946,-9.455 3.885,-4.293 0,0" /></g><g
           transform="translate(29.6108,62.2131)"
           id="g144"><path
             id="path146"
             style="fill:#84cea0;fill-opacity:1;fill-rule:nonzero;stroke:none"
             d="m 0,0 c -0.016,0.067 3.549,0.987 5.354,1.341 1.553,0.305 2.783,-0.28 3.735,-1.507 1.483,-1.912 2.934,-3.859 3.659,-6.201 0.284,-0.917 0.543,-1.98 0.353,-2.879 -0.481,-2.286 -3.058,-5.398 -3.906,-7.567 -0.892,-2.281 -1.922,-3.089 -4.183,-3.112 -4.856,-0.05 -8.935,2.247 -10.095,7.987 -0.155,0.765 -0.421,1.507 -0.601,2.268 -0.982,4.133 0.949,7.84 4.88,9.388 C -0.54,-0.178 -0.268,-0.093 0,0" /></g><g
           transform="translate(44.9932,37.8244)"
           id="g148"><path
             id="path150"
             style="fill:#e4d242;fill-opacity:1;fill-rule:nonzero;stroke:none"
             d="M 0,0 C 1.644,1.95 0.837,4.021 0.63,6.043 0.575,6.587 -0.093,8.099 -0.204,8.65 -0.228,8.769 0.47,8.787 0.883,8.713 2.172,8.481 2.475,7.898 3.156,7.106 5.567,4.301 5.675,2.023 3.702,-0.66 2.528,-2.256 1.03,-3.009 -0.916,-2.519 -2.764,-2.053 -4.03,-0.991 -4.48,1.02 c -0.453,2.021 0.067,3.8 0.99,5.507 0.425,0.788 0.928,1.263 1.013,1.217 C -2.081,7.531 -1.589,6.587 -1.3,6.082 -0.638,4.579 -0.287,3.616 -0.202,2.101 -0.167,1.456 -0.527,0.777 0,0" /></g></g></g></g></svg>